<mxfile host="app.diagrams.net" agent="Mozilla/5.0 (Windows NT 10.0; Win64; x64) AppleWebKit/537.36 (KHTML, like Gecko) Chrome/136.0.0.0 Safari/537.36" version="27.0.6">
  <diagram name="PÃ¡gina-1" id="WnqKr8uXf-LEDzjSU5Vm">
    <mxGraphModel grid="1" page="1" gridSize="10" guides="1" tooltips="1" connect="1" arrows="1" fold="1" pageScale="1" pageWidth="827" pageHeight="1169" math="0" shadow="0">
      <root>
        <mxCell id="0" />
        <mxCell id="1" parent="0" />
        <mxCell id="dVKySyFKijR6GKcAEHXF-5" value="Carro" style="swimlane;fontStyle=1;align=center;verticalAlign=top;childLayout=stackLayout;horizontal=1;startSize=26;horizontalStack=0;resizeParent=1;resizeParentMax=0;resizeLast=0;collapsible=1;marginBottom=0;whiteSpace=wrap;html=1;" vertex="1" parent="1">
          <mxGeometry x="304" y="485" width="220" height="200" as="geometry">
            <mxRectangle x="330" y="360" width="70" height="30" as="alternateBounds" />
          </mxGeometry>
        </mxCell>
        <mxCell id="dVKySyFKijR6GKcAEHXF-6" value="&lt;div&gt;- modelo: string&lt;div&gt;- codigoDaFabricante: int&lt;/div&gt;&lt;div&gt;- cor: string&lt;/div&gt;&lt;div&gt;- velocidade: int&lt;/div&gt;&lt;div&gt;# isLigado: boolean&lt;/div&gt;&lt;/div&gt;" style="text;strokeColor=none;fillColor=none;align=left;verticalAlign=top;spacingLeft=4;spacingRight=4;overflow=hidden;rotatable=0;points=[[0,0.5],[1,0.5]];portConstraint=eastwest;whiteSpace=wrap;html=1;" vertex="1" parent="dVKySyFKijR6GKcAEHXF-5">
          <mxGeometry y="26" width="220" height="84" as="geometry" />
        </mxCell>
        <mxCell id="dVKySyFKijR6GKcAEHXF-7" value="" style="line;strokeWidth=1;fillColor=none;align=left;verticalAlign=middle;spacingTop=-1;spacingLeft=3;spacingRight=3;rotatable=0;labelPosition=right;points=[];portConstraint=eastwest;strokeColor=inherit;" vertex="1" parent="dVKySyFKijR6GKcAEHXF-5">
          <mxGeometry y="110" width="220" height="8" as="geometry" />
        </mxCell>
        <mxCell id="dVKySyFKijR6GKcAEHXF-8" value="+ getModelo(): string&lt;div&gt;# setModelo(): string&lt;/div&gt;&lt;div&gt;# ligar(): boolean&lt;/div&gt;&lt;div&gt;# acelerar(kilometros: int): boolean&lt;/div&gt;&lt;div&gt;# frear(kilometros: int): boolean&lt;/div&gt;" style="text;strokeColor=none;fillColor=none;align=left;verticalAlign=top;spacingLeft=4;spacingRight=4;overflow=hidden;rotatable=0;points=[[0,0.5],[1,0.5]];portConstraint=eastwest;whiteSpace=wrap;html=1;" vertex="1" parent="dVKySyFKijR6GKcAEHXF-5">
          <mxGeometry y="118" width="220" height="82" as="geometry" />
        </mxCell>
      </root>
    </mxGraphModel>
  </diagram>
</mxfile>
